<?xml version="1.0" encoding="utf-8"?>
<!-- Generator: Adobe Illustrator 16.0.0, SVG Export Plug-In . SVG Version: 6.00 Build 0)  -->
<!DOCTYPE svg PUBLIC "-//W3C//DTD SVG 1.1//EN" "http://www.w3.org/Graphics/SVG/1.1/DTD/svg11.dtd">
<svg version="1.1" id="Layer_1" xmlns="http://www.w3.org/2000/svg" xmlns:xlink="http://www.w3.org/1999/xlink" x="0px" y="0px"
	 width="503.074px" height="85.62px" viewBox="0 0 503.074 85.62" enable-background="new 0 0 503.074 85.62" xml:space="preserve">
<rect x="-8.045" y="18.56" fill="none" width="90.804" height="74.356"/>
<g enable-background="new    ">
	<path fill="#FFFFFF" d="M0.041,20.956h20.766l14.409,33.643L49.71,20.956h20.724V83.82H55.008V37.841L40.429,71.736H30.088
		L15.51,37.841V83.82H0.041V20.956z"/>
</g>
<g>
	<path fill="#FFFFFF" d="M43.059,3.248c-0.595,0.263-1.234,0.439-1.906,0.521c0.686-0.408,1.212-1.056,1.46-1.825
		c-0.642,0.378-1.352,0.651-2.107,0.801c-0.605-0.642-1.468-1.042-2.423-1.042c-1.833,0-3.319,1.478-3.319,3.297
		c0,0.261,0.03,0.51,0.086,0.753c-2.758-0.138-5.204-1.451-6.841-3.446c-0.286,0.487-0.449,1.055-0.449,1.657
		c0,1.144,0.586,2.154,1.477,2.745c-0.544-0.017-1.056-0.166-1.503-0.413c-0.001,0.015-0.001,0.028-0.001,0.042
		c0,1.598,1.144,2.93,2.663,3.233c-0.279,0.075-0.571,0.115-0.874,0.115c-0.214,0-0.422-0.021-0.625-0.059
		c0.422,1.31,1.648,2.265,3.1,2.289c-1.136,0.886-2.567,1.413-4.122,1.413c-0.268,0-0.532-0.016-0.792-0.047
		c1.469,0.937,3.212,1.481,5.088,1.481c6.105,0,9.443-5.025,9.443-9.383c0-0.141-0.004-0.284-0.009-0.425
		C42.052,4.492,42.614,3.91,43.059,3.248z"/>
</g>
<g>
	<path fill="#FFFFFF" d="M52.343,7.55c0.058-3.446,3.246-6.463,6.713-6.348c1.661-0.076,3.223,0.642,4.496,1.65
		c-0.543,0.614-1.105,1.205-1.706,1.757c-1.53-1.051-3.705-1.352-5.235-0.139c-2.188,1.505-2.288,5.055-0.184,6.674
		c2.047,1.846,5.917,0.93,6.482-1.896c-1.283-0.02-2.568,0-3.85-0.041c-0.004-0.76-0.006-1.52-0.004-2.28
		c2.144-0.007,4.287-0.01,6.433,0.005c0.129,1.789-0.109,3.691-1.214,5.171c-1.674,2.339-5.035,3.022-7.658,2.021
		C53.985,13.127,52.121,10.366,52.343,7.55z"/>
	<path fill="#FFFFFF" d="M69.671,5.007c0.635,0,1.271,0,1.911,0c0.003,0.636,0.006,1.275,0.013,1.91
		c0.64,0.006,1.283,0.006,1.922,0.012c0,0.633,0,1.269,0,1.9c-0.639,0.007-1.278,0.01-1.922,0.017
		c-0.006,0.64-0.01,1.273-0.013,1.909c-0.64,0-1.276,0-1.915,0c-0.007-0.636-0.007-1.27-0.013-1.906
		c-0.639-0.006-1.282-0.013-1.922-0.02c0-0.632,0-1.265,0-1.9c0.64-0.006,1.279-0.009,1.922-0.012
		C69.658,6.279,69.664,5.643,69.671,5.007z"/>
</g>
<path fill="#FFFFFF" d="M16.173,0H2.876C2.42,0,2,0.289,2,0.741v13.211c0,0.452,0.42,1.059,0.876,1.059h7.495V8.52H8.942V6.491
	h1.429V5.128c0-1.92,0.695-2.964,2.417-2.964c0.825,0,1.257,0.063,1.257,0.089v1.602h-0.562c-0.937,0-0.867,0.846-0.867,1.495v1.142
	h1.981L14.307,8.52h-1.69v6.491h3.556c0.455,0,0.731-0.606,0.731-1.059V0.741C16.904,0.289,16.628,0,16.173,0z"/>
<g>
	<path fill="#FFFFFF" d="M125.035,58.728v25.369H110.61v-6.591c-1.918,2.7-4.076,4.665-6.473,5.896
		c-2.398,1.23-5.315,1.846-8.751,1.846c-4.635,0-8.398-1.343-11.289-4.029c-2.891-2.687-4.335-6.174-4.335-10.462
		c0-5.214,1.804-9.038,5.415-11.474c3.609-2.435,9.277-3.652,17.002-3.652h8.432V54.52c0-2.25-0.893-3.897-2.677-4.943
		c-1.785-1.045-4.569-1.568-8.352-1.568c-3.064,0-5.914,0.305-8.551,0.913c-2.637,0.609-5.089,1.522-7.353,2.739V40.822
		c3.063-0.741,6.14-1.304,9.23-1.688s6.18-0.576,9.271-0.576c8.072,0,13.899,1.582,17.482,4.745S125.035,51.607,125.035,58.728z
		 M103.177,64.087c-2.984,0-5.229,0.503-6.733,1.509c-1.505,1.006-2.258,2.488-2.258,4.446c0,1.801,0.605,3.21,1.818,4.229
		c1.212,1.02,2.897,1.528,5.055,1.528c2.69,0,4.955-0.959,6.793-2.878c1.838-1.919,2.757-4.321,2.757-7.206v-1.628H103.177z"/>
	<path fill="#FFFFFF" d="M173.307,41.021v10.799c-3.064-1.271-6.021-2.224-8.871-2.858c-2.851-0.636-5.542-0.953-8.072-0.953
		c-2.717,0-4.735,0.338-6.054,1.013c-1.318,0.675-1.978,1.714-1.978,3.116c0,1.139,0.5,2.012,1.499,2.62
		c0.999,0.609,2.791,1.06,5.375,1.351l2.518,0.357c7.326,0.927,12.254,2.448,14.785,4.565c2.531,2.117,3.796,5.438,3.796,9.965
		c0,4.738-1.758,8.298-5.275,10.68s-8.765,3.573-15.744,3.573c-2.957,0-6.014-0.232-9.171-0.694c-3.157-0.463-6.4-1.158-9.73-2.085
		V71.67c2.85,1.377,5.774,2.409,8.771,3.097c2.997,0.688,6.041,1.032,9.131,1.032c2.797,0,4.901-0.383,6.313-1.151
		c1.412-0.768,2.118-1.905,2.118-3.414c0-1.271-0.486-2.217-1.458-2.839c-0.973-0.621-2.911-1.104-5.814-1.449l-2.517-0.317
		c-6.368-0.794-10.829-2.263-13.387-4.407c-2.557-2.144-3.836-5.399-3.836-9.767c0-4.71,1.625-8.204,4.875-10.48
		c3.25-2.276,8.231-3.415,14.945-3.415c2.637,0,5.408,0.199,8.312,0.596C166.739,39.552,169.896,40.174,173.307,41.021z"/>
	<path fill="#FFFFFF" d="M232.047,57.021v27.076h-14.386v-4.407V63.452c0-3.891-0.086-6.564-0.259-8.02
		c-0.174-1.456-0.474-2.527-0.899-3.216c-0.56-0.927-1.318-1.648-2.278-2.164c-0.959-0.517-2.051-0.774-3.276-0.774
		c-2.984,0-5.329,1.146-7.033,3.435c-1.705,2.289-2.557,5.459-2.557,9.508v21.876h-14.306V22.321h14.306v23.82
		c2.158-2.593,4.449-4.506,6.873-5.736c2.424-1.23,5.101-1.847,8.032-1.847c5.168,0,9.091,1.575,11.768,4.725
		C230.708,46.434,232.047,51.013,232.047,57.021z"/>
	<path fill="#FFFFFF" d="M287.471,26.688v12.546c-3.276-1.456-6.474-2.555-9.59-3.296c-3.117-0.74-6.061-1.111-8.832-1.111
		c-3.676,0-6.394,0.503-8.151,1.509c-1.758,1.006-2.638,2.567-2.638,4.685c0,1.588,0.593,2.825,1.778,3.712
		c1.185,0.888,3.337,1.647,6.454,2.283l6.553,1.31c6.633,1.324,11.349,3.335,14.146,6.035c2.797,2.699,4.195,6.538,4.195,11.514
		c0,6.537-1.951,11.4-5.854,14.59c-3.903,3.189-9.864,4.784-17.882,4.784c-3.783,0-7.579-0.357-11.389-1.072
		c-3.81-0.714-7.619-1.772-11.428-3.176V68.097c3.809,2.012,7.492,3.527,11.049,4.546c3.557,1.02,6.986,1.528,10.29,1.528
		c3.357,0,5.927-0.556,7.712-1.667c1.784-1.111,2.677-2.7,2.677-4.765c0-1.852-0.605-3.281-1.817-4.287
		c-1.213-1.006-3.63-1.906-7.253-2.7l-5.954-1.31c-5.968-1.271-10.33-3.296-13.087-6.074c-2.757-2.779-4.136-6.524-4.136-11.236
		c0-5.901,1.918-10.441,5.754-13.617c3.836-3.176,9.351-4.765,16.543-4.765c3.277,0,6.647,0.245,10.11,0.734
		C280.185,24.975,283.768,25.709,287.471,26.688z"/>
	<path fill="#FFFFFF" d="M349.249,57.021v27.076h-14.385v-4.407V63.452c0-3.891-0.087-6.564-0.26-8.02
		c-0.174-1.456-0.474-2.527-0.899-3.216c-0.56-0.927-1.318-1.648-2.277-2.164c-0.959-0.517-2.052-0.774-3.277-0.774
		c-2.983,0-5.328,1.146-7.032,3.435c-1.705,2.289-2.558,5.459-2.558,9.508v21.876h-14.306V22.321h14.306v23.82
		c2.158-2.593,4.448-4.506,6.873-5.736c2.424-1.23,5.101-1.847,8.032-1.847c5.168,0,9.091,1.575,11.768,4.725
		C347.911,46.434,349.249,51.013,349.249,57.021z"/>
	<path fill="#FFFFFF" d="M404.433,58.728v25.369h-14.426v-6.591c-1.918,2.7-4.076,4.665-6.474,5.896
		c-2.397,1.23-5.314,1.846-8.751,1.846c-4.636,0-8.398-1.343-11.288-4.029c-2.892-2.687-4.336-6.174-4.336-10.462
		c0-5.214,1.805-9.038,5.414-11.474c3.609-2.435,9.277-3.652,17.003-3.652h8.432V54.52c0-2.25-0.893-3.897-2.677-4.943
		c-1.785-1.045-4.569-1.568-8.352-1.568c-3.064,0-5.914,0.305-8.552,0.913c-2.638,0.609-5.089,1.522-7.353,2.739V40.822
		c3.063-0.741,6.14-1.304,9.23-1.688c3.09-0.384,6.18-0.576,9.271-0.576c8.072,0,13.899,1.582,17.482,4.745
		S404.433,51.607,404.433,58.728z M382.575,64.087c-2.983,0-5.229,0.503-6.733,1.509s-2.258,2.488-2.258,4.446
		c0,1.801,0.606,3.21,1.818,4.229c1.212,1.02,2.897,1.528,5.056,1.528c2.689,0,4.954-0.959,6.793-2.878
		c1.838-1.919,2.757-4.321,2.757-7.206v-1.628H382.575z"/>
	<path fill="#FFFFFF" d="M450.986,51.74c-1.252-0.582-2.497-1.013-3.736-1.291c-1.238-0.277-2.484-0.416-3.735-0.416
		c-3.677,0-6.508,1.171-8.492,3.513c-1.984,2.343-2.977,5.697-2.977,10.064v20.486H417.74V39.631h14.306v7.306
		c1.838-2.912,3.949-5.036,6.334-6.372c2.384-1.337,5.24-2.006,8.571-2.006c0.479,0,0.999,0.021,1.558,0.06
		c0.56,0.04,1.372,0.126,2.438,0.259L450.986,51.74z"/>
	<path fill="#FFFFFF" d="M502.774,61.745v4.049h-33.446c0.346,3.335,1.559,5.837,3.637,7.504s4.981,2.501,8.711,2.501
		c3.01,0,6.094-0.442,9.251-1.33c3.156-0.886,6.399-2.229,9.729-4.029v10.958c-3.383,1.27-6.767,2.229-10.149,2.878
		c-3.384,0.648-6.767,0.973-10.149,0.973c-8.099,0-14.393-2.045-18.881-6.134c-4.489-4.09-6.733-9.826-6.733-17.211
		c0-7.252,2.204-12.955,6.613-17.111c4.408-4.155,10.476-6.233,18.201-6.233c7.033,0,12.661,2.104,16.884,6.313
		C500.663,49.08,502.774,54.704,502.774,61.745z M488.069,57.021c0-2.7-0.793-4.877-2.378-6.531
		c-1.585-1.653-3.656-2.481-6.213-2.481c-2.771,0-5.022,0.774-6.754,2.322c-1.731,1.549-2.811,3.779-3.236,6.69H488.069z"/>
</g>
</svg>
