<?xml version="1.0" encoding="utf-8"?>
<!-- Generator: Adobe Illustrator 16.0.0, SVG Export Plug-In . SVG Version: 6.00 Build 0)  -->
<!DOCTYPE svg PUBLIC "-//W3C//DTD SVG 1.1//EN" "http://www.w3.org/Graphics/SVG/1.1/DTD/svg11.dtd">
<svg version="1.1" id="Ebene_1" xmlns="http://www.w3.org/2000/svg" xmlns:xlink="http://www.w3.org/1999/xlink" x="0px" y="0px"
	 width="830.061px" height="168.029px" viewBox="224.971 316.001 830.061 168.029"
	 enable-background="new 224.971 316.001 830.061 168.029" xml:space="preserve">
<path fill="#00AAEC" d="M1054.872,484.015c-276.218,0-552.439,0-828.662,0.016c-1.009,0-1.239-0.125-1.239-0.669
	c0.025-55.787,0.025-111.574,0.025-167.36c276.625,0,553.249,0,829.875,0c0.255,0.252,0.127,0.524,0.127,0.786
	c0.007,55.483,0.007,110.963,0,166.442C1054.999,483.491,1055.127,483.764,1054.872,484.015z"/>
<path fill="#FEFEFE" d="M264.605,395.464c-0.763,0.963-0.522,1.718-0.522,2.417c-0.016,23.827-0.032,47.654,0.033,71.481
	c0.008,1.757-0.474,2.119-2.152,2.103c-7.353-0.104-14.707-0.072-22.069-0.016c-1.196,0.008-1.493-0.312-1.493-1.501
	c0.032-34.239,0.032-68.479,0-102.718c0-1.188,0.305-1.519,1.501-1.51c10.581,0.04,21.162,0.08,31.75-0.023
	c2.071-0.024,1.935,1.638,2.384,2.633c2.087,4.607,3.934,9.32,6.029,13.929c1.605,3.517,2.946,7.153,4.456,10.709
	c1.525,3.604,3.123,7.169,4.656,10.773c1.172,2.736,2.264,5.507,3.428,8.253c1.268,2.979,2.593,5.939,3.877,8.911
	c0.112,0.265,0.168,0.554,0.521,0.554s0.409-0.281,0.522-0.554c1.798-4.344,3.572-8.694,5.427-13.015
	c2.199-5.113,4.496-10.171,6.695-15.285c1.533-3.548,2.93-7.16,4.448-10.717c1.509-3.541,3.099-7.048,4.64-10.581
	c0.458-1.066,0.947-2.127,1.269-3.243c0.465-1.638,1.26-2.393,3.155-2.368c10.3,0.104,20.6,0.071,30.9,0.023
	c1.244-0.008,1.622,0.281,1.622,1.582c-0.04,34.184-0.04,68.366-0.008,102.549c0,1.252-0.297,1.613-1.581,1.599
	c-7.466-0.064-14.94-0.072-22.414,0.008c-1.39,0.008-1.646-0.434-1.638-1.709c0.032-24.173,0.024-48.337,0.024-72.501
	c0-0.675,0-1.341,0-2.328c-0.979,0.931-1.252,1.951-1.629,2.826c-2.32,5.482-4.616,10.981-7.056,16.417
	c-1.606,3.572-2.955,7.265-4.496,10.86c-1.863,4.345-3.846,8.621-5.708,12.966c-1.541,3.597-3.002,7.225-4.448,10.869
	c-0.594,1.502-1.268,2.393-3.211,2.305c-4.52-0.2-9.056-0.104-13.576-0.04c-1.34,0.023-1.95-0.465-2.448-1.71
	c-1.493-3.726-3.179-7.385-4.761-11.078c-1.172-2.746-2.271-5.516-3.444-8.261c-1.542-3.604-3.123-7.186-4.664-10.782
	c-1.148-2.689-2.232-5.41-3.388-8.101c-1.589-3.692-3.235-7.361-4.816-11.055C265.793,398.675,265.264,397.174,264.605,395.464z"/>
<path fill="#FEFEFE" d="M568.907,427.633c-0.435,13.855-0.104,27.721-0.209,41.584c-0.017,2.594,0.217,2.192-2.119,2.2
	c-7.25,0.017-14.491-0.024-21.732,0.032c-1.155,0.008-1.534-0.248-1.534-1.478c0.033-35.709,0.033-71.417-0.008-107.126
	c0-1.356,0.467-1.549,1.654-1.542c7.354,0.048,14.715,0.057,22.069-0.008c1.34-0.008,1.702,0.369,1.702,1.693
	c-0.049,12.621-0.041,25.239-0.009,37.86c0,0.724-0.489,1.814,0.395,2.111c0.586,0.2,0.996-0.883,1.453-1.381
	c5.122-5.588,11.158-9.658,18.761-10.798c7.932-1.188,15.639-0.578,22.495,4.207c3.677,2.561,6.246,6.005,7.963,10.123
	c1.004,2.417,2.032,4.825,2.096,7.499c0.481,0.497,0.121,1.275,0.594,1.766c0.329,2.874,0.394,5.749,0.394,8.639
	c-0.016,15.551-0.024,31.108,0.023,46.659c0.009,1.39-0.297,1.797-1.732,1.781c-7.41-0.08-14.82-0.072-22.23-0.008
	c-1.3,0.016-1.572-0.361-1.564-1.599c0.023-13.52,0.008-27.038-0.04-40.549c-0.017-3.051-0.208-6.102-0.321-9.145
	c-0.474-0.506-0.12-1.276-0.594-1.782c0.072-4.407-4.608-8.397-9.192-8.79c-7.031-0.594-12.611,2.504-15.663,8.959
	c-1.1,2.336-2.022,4.68-2.078,7.289C569.051,426.355,569.388,427.127,568.907,427.633z"/>
<path fill="#FEFEFE" d="M796.677,411.039c0.152,1.324,0.306,2.656,0.458,3.99c0.297,0.377,0.281,0.826,0.289,1.274
	c0.104,0.939-0.258,1.937,0.289,2.834c0.016,13.978,0.031,27.953,0.048,41.932c0,2.938-0.073,5.884,0.032,8.822
	c0.056,1.332-0.401,1.564-1.613,1.558c-7.475-0.058-14.939-0.058-22.414,0c-1.181,0.008-1.51-0.289-1.502-1.493
	c0.049-8.831,0.031-17.653,0.023-26.484c-0.008-5.49,0.186-10.988-0.137-16.457c-0.191-3.18-0.312-6.406-0.906-9.554
	c-0.754-4.006-4.994-7.521-9.337-7.875c-7.658-0.635-13.311,3.115-16.145,10.1c-0.418,1.035-0.907,2.022-1.012,3.146
	c-0.298,0.32-0.346,0.762-0.586,1.107c-1.028,10.557-0.41,21.146-0.555,31.719c-0.063,4.641-0.048,9.288,0.008,13.928
	c0.016,1.373-0.377,1.879-1.838,1.863c-7.354-0.064-14.707-0.058-22.068,0c-1.196,0.008-1.502-0.322-1.502-1.51
	c0.031-35.716,0.031-71.425,0-107.142c0-1.213,0.354-1.501,1.525-1.494c7.297,0.048,14.604,0.072,21.899-0.008
	c1.646-0.023,1.99,0.594,1.982,2.087c-0.04,12.564-0.023,25.128-0.017,37.692c0,0.602-0.159,1.229,0.467,2.304
	c1.733-1.887,3.234-3.805,5.009-5.411c11.104-10.035,27.457-9.096,35.918-4.014c4.054,2.432,7.008,5.796,9.016,10.059
	c0.892,1.903,1.789,3.798,2.087,5.917C796.389,410.244,796.438,410.693,796.677,411.039z"/>
<path fill="#FEFEFE" d="M808.928,439.811c1.518-6.902,5.74-11.592,12.019-14.555c7.312-3.442,15.155-4.246,23.096-4.487
	c1.188-0.04,2.377,0,3.565,0c4.463-0.271,8.919-0.048,13.382-0.119c1.719-0.024,1.791-0.13,1.356-1.888
	c0.226-6.223-3.91-9.272-9.016-10.483c-6.357-1.511-12.781-1.285-19.203-0.529c-6.414,0.754-12.547,2.488-18.279,5.53
	c-0.192,0.097-0.44,0.081-0.826,0.137c0-3.548,0-7.032,0.009-10.524c0-2.488,0.008-4.978-0.018-7.466
	c0-0.675,0.072-1.156,0.899-1.341c15.542-3.484,31.188-5.291,47.036-2.393c5.827,1.06,11.295,3.123,15.782,7.265
	c3.403,3.155,5.668,6.944,7.041,11.36c0.408,1.332,0.875,2.633,1.012,4.021c0.385,0.402,0.208,1.035,0.586,1.438
	c0.924,12.94,0.249,25.891,0.434,38.832c0.072,5.145-0.008,10.299,0.024,15.444c0.008,0.939-0.112,1.404-1.253,1.396
	c-7.635-0.058-15.271-0.04-22.904-0.017c-1.012,0.009-1.381-0.28-1.355-1.35c0.072-3.098,0.031-6.197,0.031-9.457
	c-1.43,0.748-2.08,2.023-2.93,3.021c-5.275,6.116-12.051,9.104-19.942,9.704c-6.839,0.521-13.519-0.104-19.57-3.797
	c-4.505-2.762-7.933-6.423-9.964-11.375c-0.498-1.205-0.932-2.377-1.043-3.662c-0.227-0.353-0.281-0.794-0.562-1.123
	c-0.539-4.149-0.395-8.309,0.031-12.459C808.582,440.574,808.639,440.141,808.928,439.811z"/>
<path fill="#FEFEFE" d="M447.234,415.775c0.932,12.94,0.257,25.891,0.434,38.832c0.072,5.145,0,10.299,0.032,15.444
	c0.008,0.939-0.112,1.404-1.26,1.396c-7.635-0.058-15.271-0.04-22.904-0.017c-1.004,0.009-1.373-0.28-1.349-1.35
	c0.071-3.098,0.023-6.197,0.023-9.457c-1.421,0.748-2.079,2.023-2.93,3.02c-5.274,6.117-12.05,9.104-19.942,9.705
	c-6.839,0.521-13.511-0.104-19.564-3.797c-4.512-2.762-7.939-6.423-9.971-11.375c-0.498-1.205-0.923-2.377-1.043-3.662
	c-0.217-0.353-0.281-0.794-0.562-1.123c-0.538-4.149-0.394-8.309,0.032-12.459c0.225-0.36,0.281-0.795,0.57-1.125
	c1.509-6.902,5.74-11.592,12.018-14.555c7.313-3.443,15.157-4.246,23.096-4.487c1.188-0.04,2.376,0,3.565,0
	c4.455-0.271,8.918-0.048,13.375-0.119c1.718-0.024,1.798-0.13,1.355-1.888c0.225-6.223-3.91-9.272-9.016-10.483
	c-6.358-1.511-12.78-1.285-19.203-0.529c-6.415,0.754-12.548,2.488-18.28,5.53c-0.185,0.097-0.434,0.081-0.819,0.137
	c0-3.548,0-7.032,0-10.524c0-2.488,0.008-4.978-0.008-7.466c-0.008-0.675,0.072-1.156,0.899-1.341
	c15.542-3.484,31.188-5.291,47.028-2.393c5.828,1.06,11.303,3.123,15.782,7.265c3.404,3.155,5.668,6.944,7.041,11.36
	c0.417,1.332,0.883,2.633,1.011,4.021C447.042,414.74,446.865,415.373,447.234,415.775z"/>
<path fill="#FEFEFE" d="M1047.318,427.633c0.024,3.275-0.017,6.551,0.082,9.826c0.03,1.164-0.379,1.389-1.438,1.381
	c-5.596-0.049-11.189-0.022-16.786-0.022c-12.949,0-25.891,0-38.832,0c-2.23,0-2.224,0-1.895,2.207
	c0.081,0.497,0.137,1.004,0.201,1.51c0.297,0.312,0.336,0.762,0.586,1.099c1.582,6.423,5.924,10.102,12.051,11.833
	c6.285,1.791,12.65,1.262,18.986,0.153c7.754-1.35,15.004-4.206,21.946-7.836c1.253-0.649,1.381-0.329,1.373,0.844
	c-0.032,5.604-0.041,11.198,0.017,16.802c0.008,1.021-0.345,1.486-1.275,1.814c-12.404,4.398-25.145,6.76-38.342,6.182
	c-8.534-0.377-16.73-2.11-24.164-6.631c-6.014-3.653-10.582-8.646-13.576-14.964c-1.935-4.078-3.243-8.421-3.492-12.997
	c-0.617-0.852,0.024-1.968-0.562-2.826c-0.009-2.666-0.023-5.339-0.031-8.004c0.65-0.836-0.024-1.943,0.578-2.785
	c0.16-1.559,0.321-3.106,0.479-4.655c0.228-0.361,0.274-0.805,0.57-1.125c1.904-8.8,6.641-15.783,13.833-21.081
	c6.062-4.464,13.013-6.712,20.433-7.57c8.668-1.012,17.234-0.714,25.479,2.521c7.778,3.06,13.833,8.156,18.095,15.391
	c1.863,3.163,3.396,6.431,4.078,10.06c0.289,0.32,0.33,0.762,0.578,1.107c0.152,1.653,0.298,3.308,0.449,4.97
	C1047.367,425.674,1046.701,426.789,1047.318,427.633z"/>
<path fill="#FEFEFE" d="M706.001,441.256c0.401,4.158,0.569,8.316,0.024,12.484c-0.282,0.319-0.347,0.762-0.562,1.115
	c-0.971,5.618-4.295,9.576-8.919,12.596c-5.62,3.66-11.987,5.01-18.521,5.628c-13.905,1.315-27.505-0.538-40.928-4.104
	c-0.562-0.145-1.356-0.071-1.349-1.141c0.048-6.101,0.023-12.201,0.023-18.504c1.799,0.754,3.429,1.453,5.082,2.119
	c9.288,3.757,18.946,5.46,28.949,5.05c3.612-0.144,7.209-0.562,10.139-3.019c3.678-3.066,2.777-8.943-1.652-10.67
	c-3.829-1.501-7.916-1.773-11.938-2.296c-6.663-0.866-13.286-1.895-19.509-4.655c-5.555-2.48-9.479-6.263-11.19-12.322
	c-1.469-5.203-1.518-10.485-0.394-15.543c1.726-7.755,7.137-12.517,14.604-14.996c8.194-2.714,16.648-2.986,25.15-2.553
	c8.253,0.426,16.369,1.862,24.413,3.757c1.365,0.321,1.646,0.875,1.63,2.15c-0.064,5.202-0.023,10.412-0.023,15.614
	c0,2.039-0.008,2.057-1.83,1.325c-7.562-3.051-15.357-5.211-23.516-5.893c-4.229-0.354-8.492-0.457-12.644,0.634
	c-2.812,0.739-5.459,1.847-5.949,5.29c-0.399,0.803-0.425,1.614,0.017,2.417c0.33,2.224,1.928,3.292,3.798,4.038
	c3.331,1.332,6.896,1.564,10.404,2.055c6.814,0.947,13.64,1.863,20.165,4.151c4.36,1.523,8.446,3.499,11.128,7.521
	c1.355,2.039,2.513,4.166,2.825,6.64C705.712,440.469,705.76,440.919,706.001,441.256z"/>
<path fill="#FEFEFE" d="M460.488,409.208c0.803-6.519,4.479-11.022,10.026-14.145c5.323-2.986,11.191-3.99,17.173-4.479
	c12.588-1.036,24.902,0.771,37.097,3.661c0.634,0.152,1.365,0.121,1.356,1.14c-0.023,6.102-0.008,12.194-0.008,18.417
	c-3.292-1.141-6.374-2.345-9.537-3.292c-8.444-2.536-17.026-4.054-25.89-2.938c-2.457,0.305-4.849,0.867-6.76,2.666
	c-2.689,2.52-2.48,7.231,1.228,9.088c2.778,1.389,5.812,1.75,8.831,2.166c8.196,1.141,16.45,2.049,24.261,5.065
	c4.126,1.605,7.771,3.807,10.131,7.739c1.534,2.562,2.546,5.268,2.826,8.245c0.586,0.714-0.016,1.726,0.595,2.44
	c-0.009,1.998-0.017,3.988-0.017,5.988c-0.521,0.617-0.048,1.509-0.586,2.127c-0.136,0.892-0.272,1.789-0.417,2.683
	c-0.297,0.305-0.321,0.762-0.61,1.076c-1.412,4.961-4.72,8.372-9,10.989c-5.57,3.419-11.793,4.672-18.175,5.259
	c-13.849,1.274-27.392-0.611-40.767-4.119c-1.036-0.273-1.421-0.658-1.405-1.79c0.065-5.491,0.073-10.982,0-16.475
	c-0.016-1.381,0.33-1.483,1.485-0.938c10.164,4.834,20.881,7.063,32.128,6.752c3.18-0.088,6.311-0.449,9.192-1.951
	c2.954-1.549,4.263-4.006,3.766-7.289c-0.41-2.665-2.272-4.021-4.729-4.801c-4.456-1.422-9.104-1.638-13.672-2.312
	c-6.808-1.012-13.559-2.23-19.636-5.73c-3.717-2.136-6.406-5.114-7.899-9.216c-0.481-1.332-0.923-2.609-0.987-4.015
	c-0.475-0.506-0.12-1.276-0.578-1.782c-0.186-2.817-0.186-5.636-0.008-8.453C460.368,410.484,460.015,409.705,460.488,409.208z"/>
<path fill="#FEFEFE" d="M929.572,430.338c-0.435,12.846-0.112,25.689-0.209,38.535c-0.017,2.544,0,2.544-2.633,2.544
	c-7.072,0-14.146-0.024-21.22,0.024c-1.146,0.016-1.541-0.232-1.541-1.47c0.041-25.465,0.041-50.93,0.009-76.395
	c-0.009-1.244,0.435-1.485,1.559-1.478c7.416,0.04,14.826,0.049,22.236-0.008c1.285-0.016,1.653,0.361,1.612,1.621
	c-0.079,3.115-0.03,6.23-0.016,9.337c0.008,0.41-0.201,1.021,0.41,1.142c0.514,0.096,0.506-0.515,0.706-0.819
	c6.744-9.931,16.279-13.864,28.018-12.965c4.368,0.329,4.358,0.4,4.358,4.761c0,5.66-0.039,11.319,0.032,16.979
	c0.017,1.469-0.319,1.7-1.661,1.132c-6.229-2.649-12.652-3.339-19.163-1.229c-4.535,1.47-7.738,4.561-9.817,8.871
	c-1.124,2.328-2.022,4.688-2.119,7.306c-0.28,0.386-0.272,0.836-0.272,1.285C929.861,429.824,929.789,430.105,929.572,430.338z"/>
<path fill="#FEFEFE" d="M257.726,336.233c0.048-0.915,0.61-1.269,1.445-1.309c0.401-0.023,0.794-0.023,1.188-0.023
	c2.762-0.018,2.818-0.104,2.537-2.803c-0.064-0.649-0.281-0.898-0.915-0.875c-1.919,0.049-3.838-0.063-5.756,0.218
	c-2.4,0.36-4.359,2.312-4.247,4.961c0.049,1.212-0.225,1.758-1.565,1.638c-2.167-0.201-1.196,1.509-1.381,2.481
	c-0.225,1.146,0.265,1.71,1.47,1.509c1.236-0.209,1.493,0.377,1.477,1.517c-0.072,3.508-0.064,7.016,0,10.525
	c0.016,1.106-0.185,1.604-1.46,1.564c-2.995-0.089-5.998,0-8.992-0.031c-2.513-0.032-3.091-0.635-3.091-3.075
	c-0.008-8.542-0.008-17.093,0-25.635c0-2.488,0.65-3.179,3.179-3.187c5.435-0.024,10.862-0.008,16.297-0.008
	c2.994,0,5.997-0.017,8.991,0c2.36,0.017,3.107,0.771,3.107,3.091c0,8.663,0,17.317,0,25.971c0,2.031-0.618,2.777-2.593,2.826
	c-2.882,0.072-5.772-0.008-8.662,0.04c-0.835,0.008-1.043-0.312-1.043-1.092c0.032-3.789,0.04-7.586,0-11.375
	c-0.008-0.883,0.257-1.229,1.156-1.148c0.619,0.064,1.252-0.063,1.863,0.032c1.333,0.201,1.614-0.385,1.557-1.604
	c-0.121-2.866,0.281-2.368-2.457-2.425c-0.683-0.017-1.356-0.048-2.031-0.063C257.356,337.398,257.388,336.82,257.726,336.233z"/>
<path fill="#FEFEFE" d="M309.121,340.384c0.016,1.341-0.747,2.449-1.1,3.679c0.048,0.4-0.041,0.745-0.377,1.003
	c-0.932,1.044-1.822,2.127-2.794,3.131c-4.535,4.695-13.222,5.708-18.593,2.007c2.569-0.361,5.025-0.57,7.064-2.304
	c-1.22-0.515-2.504-0.875-3.46-1.783c-1.517-1.445-1.429-1.919,0.401-2.465c-0.65-0.409-1.292-0.819-1.935-1.229
	c-0.257-0.056-0.49-0.145-0.602-0.417c-0.121-0.618-0.586-1.076-0.795-1.614c-0.241-0.634-0.995-1.558,0.354-1.981
	c0.225-0.081,0.369-0.226,0.409-0.466c-0.12-0.337-0.241-0.675-0.361-1.012c-0.353-0.265-0.353-0.747-0.642-1.052
	c-0.024-0.337-0.056-0.674-0.064-1.011c-0.008-0.996-0.257-2.24,0.762-2.73c0.875-0.425,1.26,0.827,1.838,1.302
	c2.545,2.079,5.299,3.557,8.63,3.78c0.73-0.577-0.088-1.669,0.739-2.216c1.501-4.247,5.298-5.651,9.039-3.211
	c1.277,0.835,2.104-0.104,3.139-0.281c0.361-0.104,0.45,0.064,0.394,0.386c-0.097,0.771-0.683,1.205-1.237,1.701
	c0.715,0.715,1.357-0.481,2.047,0.112c-0.297,0.979-1.389,1.357-1.911,2.192v-0.008c-0.481,0.36-0.145,0.938-0.345,1.372
	c-0.498,0.569-0.257,1.269-0.321,1.91C309.41,339.605,309.402,340.023,309.121,340.384z"/>
<path fill="#FBFDFE" d="M337.203,340.995c0.185-0.723-0.273-0.65-0.771-0.699c-3.653-0.329-5.331-1.734-6.254-5.178
	c-0.514-0.49-0.514-0.979,0.008-1.469c1.092-4.279,4.223-5.878,7.683-6.271c2.537-0.297,5.074-0.185,7.603-0.232
	c0.626-0.017,0.851,0.096,0.337,0.642c-0.249,0.386-0.594,0.643-1.068,0.707c-0.674,0.514-1.533,0.104-2.376,0.481
	c1.036,1.093,1.774,2.345,2.062,3.733c0.506,2.424-0.474,4.335-2.376,5.86c-2.28,1.847-1.975,2.955,0.208,4.504
	c1.381,0.979,2.762,2.031,3.227,3.805c0.73,2.762-0.152,5.29-2.553,6.872c-3.564,2.368-7.434,2.488-11.295,1.003
	c-1.871-0.722-3.251-2.256-3.195-4.471c0.072-2.361,1.573-3.798,3.548-4.833c1.774-0.939,3.79-0.955,5.748-1.438
	c-0.186-0.586-0.361-1.107-0.53-1.63C336.89,341.925,336.89,341.46,337.203,340.995z"/>
<path fill="#F7FCFE" d="M350.794,335.479c0.626-0.056,1.043,0.098,1.027,0.804c-0.016,0.514,0.056,1.026-0.008,1.524
	c-0.177,1.188,0.418,1.35,1.445,1.445c0.803,0.072,2.368-0.867,2.296,0.939c-0.072,1.558-1.501,0.763-2.264,0.771
	c-1.188,0-1.654,0.345-1.477,1.533c0.056,0.385-0.008,0.787,0.008,1.188c0.023,0.626-0.056,1.093-0.891,1.076
	c-0.771-0.023-1.196-0.265-1.076-1.092c0.297-1.95-0.176-3.155-2.504-2.665c-0.626,0.128-0.891-0.225-0.883-0.883
	c0.008-0.634,0.257-1.036,0.883-0.907c2.376,0.49,2.777-0.787,2.504-2.714C349.758,335.768,350.144,335.463,350.794,335.479z"/>
<path fill="#C4EBFA" d="M862.346,418.762c0.69,0.273,0.683,0.853,0.529,1.412c-0.16,0.604-0.705,0.691-1.229,0.691
	c-4.681-0.024-9.359-0.064-14.041-0.098c2.745-0.44,5.508-0.104,8.254-0.191c1.524-0.049,3.059-0.113,4.567,0.016
	C861.889,420.721,862.547,420.255,862.346,418.762z"/>
<path fill="#C4EBFA" d="M422.211,418.762c0.699,0.273,0.684,0.853,0.53,1.412c-0.161,0.604-0.699,0.691-1.22,0.691
	c-4.681-0.024-9.361-0.064-14.041-0.098c2.736-0.44,5.498-0.104,8.252-0.191c1.517-0.049,3.051-0.113,4.567,0.016
	C421.753,420.721,422.42,420.255,422.211,418.762z"/>
<path fill="#00A8E9" d="M345.022,332.284c0.506,0.963,0.417,1.91,0.088,2.842C344.548,334.17,344.757,333.231,345.022,332.284z"/>
<path fill="#C2EAFA" d="M797.713,419.139c-1.076-0.746-0.547-1.83-0.587-2.785c0.233-0.145,0.435-0.151,0.571,0.13
	C797.705,417.365,797.705,418.248,797.713,419.139z"/>
<path fill="#B9E7F9" d="M1047.318,427.633c-1.067-0.755-0.569-1.83-0.578-2.802C1047.776,425.586,1047.254,426.669,1047.318,427.633
	z"/>
<path fill="#40BFF1" d="M962.744,425.217c-0.072,0.946,0.4,2.022-0.578,2.785C962.166,427.031,961.676,425.963,962.744,425.217z"/>
<path fill="#00A8E9" d="M330.186,333.649c0,0.489,0,0.979-0.008,1.469c-0.089,0.136-0.201,0.393-0.281,0.377
	c-0.675-0.088-0.442-0.658-0.426-1.028C329.488,334.083,329.207,333.264,330.186,333.649z"/>
<path fill="#40BFF1" d="M962.197,436.006c0.979,0.787,0.475,1.863,0.562,2.826C961.684,438.069,962.15,436.993,962.197,436.006z"/>
<path fill="#00A8E9" d="M298.596,335.005c-0.281,0.723,0.891,1.936-0.739,2.216C298.123,336.49,297.215,335.367,298.596,335.005z"/>
<path fill="#3BBEF0" d="M531.817,444.981c-0.933-0.637-0.546-1.592-0.595-2.44C532.242,443.15,531.841,444.114,531.817,444.981z"/>
<path fill="#BDE8FA" d="M657.109,415.743c-0.946-0.803-0.932-1.605-0.017-2.417C657.102,414.129,657.102,414.94,657.109,415.743z"/>
<path fill="#00A8E9" d="M310.068,335.905c0.923,0.466,0.747,1.164,0.385,2.159c-0.554-0.812-0.289-1.525-0.385-2.167V335.905z"/>
<path fill="#40BFF1" d="M531.215,453.098c0.073-0.747-0.361-1.622,0.586-2.127C531.874,451.748,532.146,452.592,531.215,453.098z"/>
<path fill="#59C7F3" d="M568.907,427.633c0.016-0.658-0.361-1.438,0.569-1.799C569.565,426.525,569.709,427.223,568.907,427.633z"/>
<path fill="#44C0F1" d="M257.726,336.233c0.024,0.569,0.048,1.141,0.072,1.718C256.818,337.414,256.882,336.844,257.726,336.233z"/>
<path fill="#B5E6F9" d="M459.911,419.436c0.827,0.387,0.658,1.101,0.578,1.783C459.662,420.833,459.871,420.103,459.911,419.436z"/>
<path fill="#DAF2FB" d="M309.113,339.027c-0.016-0.658-0.217-1.381,0.61-1.759c-0.008,0.562-0.016,1.125-0.024,1.679
	C309.53,339.172,309.33,339.18,309.113,339.027z"/>
<path fill="#40BFF1" d="M596.41,418.376c0.884,0.369,0.578,1.124,0.594,1.782C596.194,419.765,596.33,419.066,596.41,418.376z"/>
<path fill="#BFE9FA" d="M622.479,414.378c-0.804-0.385-0.684-1.075-0.595-1.766C622.678,412.998,622.51,413.712,622.479,414.378z"/>
<path fill="#00A8E9" d="M356.566,340.087c-0.008,0.226,0,0.506-0.265,0.538c-0.297,0.032-0.329-0.257-0.312-0.474
	c0.008-0.152,0.081-0.394,0.185-0.435C356.478,339.597,356.518,339.87,356.566,340.087z"/>
<path fill="#BFE9FA" d="M460.488,409.208c0.088,0.69,0.217,1.39-0.586,1.774C459.918,410.332,459.605,409.569,460.488,409.208z"/>
<path fill="#3ABDF0" d="M337.203,340.995c0,0.466,0.008,0.923,0.008,1.389C336.392,341.925,336.319,341.468,337.203,340.995z"/>
<path fill="#91DAF6" d="M309.113,339.027c0.201-0.024,0.393-0.049,0.586-0.08c0.064,0.586,0.193,1.188-0.578,1.437
	C309.121,339.935,309.121,339.485,309.113,339.027z"/>
<path fill="#3BBEF0" d="M797.697,416.482c-0.187-0.041-0.378-0.091-0.571-0.13c0-0.44,0-0.883,0.009-1.323
	C797.825,415.317,797.793,415.887,797.697,416.482z"/>
<path fill="#60CAF3" d="M887.369,415.775c-0.684-0.281-0.666-0.844-0.586-1.438C887.466,414.619,887.505,415.165,887.369,415.775z"
	/>
<path fill="#60CAF3" d="M447.234,415.775c-0.683-0.281-0.658-0.844-0.586-1.438C447.331,414.619,447.371,415.165,447.234,415.775z"
	/>
<path fill="#00A8E9" d="M307.644,345.064c0.032-0.369,0.064-0.738,0.377-1.004C309.032,344.824,307.948,344.8,307.644,345.064z"/>
<path fill="#00A8E9" d="M344.741,328.495c0.361-0.241,0.715-0.474,1.068-0.707C345.769,328.495,345.447,328.784,344.741,328.495z"/>
<path fill="#A0DFF7" d="M368.199,453.395c0.53,0.209,0.707,0.587,0.562,1.123C368.07,454.397,368.15,453.893,368.199,453.395z"/>
<path fill="#6BCDF4" d="M989.236,443.632c-0.635-0.136-0.644-0.593-0.586-1.099C989.148,442.741,989.396,443.078,989.236,443.632z"
	/>
<path fill="#65CCF3" d="M706.001,441.256c-0.683-0.111-0.618-0.608-0.57-1.106C705.953,440.35,706.145,440.719,706.001,441.256z"/>
<path fill="#8FD9F6" d="M530.188,456.855c-0.128-0.548,0.146-0.868,0.61-1.076C530.902,456.309,530.742,456.693,530.188,456.855z"/>
<path fill="#60CAF3" d="M808.928,439.811c0.049,0.498,0.128,1.005-0.562,1.125C808.221,440.389,808.405,440.02,808.928,439.811z"/>
<path fill="#60CAF3" d="M368.801,439.811c0.04,0.498,0.128,1.005-0.57,1.125C368.086,440.389,368.279,440.02,368.801,439.811z"/>
<path fill="#A0DFF7" d="M808.334,453.395c0.529,0.209,0.698,0.587,0.562,1.123C808.197,454.397,808.277,453.893,808.334,453.395z"/>
<path fill="#A0DFF7" d="M705.463,454.855c-0.145-0.538,0.032-0.916,0.562-1.115C706.073,454.229,706.16,454.734,705.463,454.855z"/>
<path fill="#35BCF0" d="M929.572,430.338c0-0.338,0-0.674,0-1.012c0.177-0.217,0.369-0.226,0.578-0.064
	C930.23,429.768,930.078,430.146,929.572,430.338z"/>
<path fill="#75D1F4" d="M930.15,429.262c-0.192,0.024-0.386,0.049-0.578,0.064c-0.023-0.474-0.16-1.003,0.562-1.101
	C930.143,428.572,930.15,428.917,930.15,429.262z"/>
<path fill="#9ADDF7" d="M744.166,423.939c-0.145-0.546,0.072-0.907,0.586-1.107C744.784,423.321,744.855,423.835,744.166,423.939z"
	/>
<path fill="#60CAF3" d="M963.795,419.436c0.041,0.49,0.121,1.005-0.57,1.125C963.082,420.014,963.273,419.645,963.795,419.436z"/>
<path fill="#6BCDF4" d="M1046.291,419.861c-0.635-0.138-0.65-0.604-0.578-1.107C1046.211,418.963,1046.443,419.308,1046.291,419.861
	z"/>
<path fill="#60CAF3" d="M796.677,411.039c-0.675-0.113-0.634-0.611-0.578-1.108C796.621,410.123,796.805,410.5,796.677,411.039z"/>
<path fill="#00A8E9" d="M287.694,337.944c0.321,0.063,0.787,0.185,0.619,0.529c-0.265,0.546-0.691,0.201-1.028-0.063
	C287.421,338.257,287.557,338.104,287.694,337.944z"/>
<path fill="#6ACDF4" d="M286.69,335.88c0.498,0.177,0.73,0.522,0.642,1.052C286.867,336.731,286.554,336.442,286.69,335.88z"/>
<path fill="#00A8E9" d="M287.726,342.006c0.289,0.008,0.554,0.057,0.602,0.417C287.87,342.656,287.565,342.664,287.726,342.006z"/>
<path fill="#93DAF6" d="M311.168,331.898c-0.129-0.129-0.265-0.258-0.394-0.386c0.289-0.271,0.634-0.642,0.915-0.088
	C311.85,331.754,311.457,331.858,311.168,331.898z"/>
<path fill="#00AAEC" d="M861.302,444.965c-1.269,5.477-7.241,11.071-13.872,11.528c-3.308,0.225-6.599,0.08-9.497-1.733
	c-3.604-2.265-4.761-5.709-4.327-9.811c0.386-3.621,2.496-5.957,5.668-7.41c3.421-1.565,7.098-1.734,10.773-1.766
	c3.629-0.041,7.25,0.048,10.869-0.041c1.27-0.032,1.494,0.441,1.445,1.558c-0.104,2.208-0.058,4.416-0.449,6.599
	C861.615,444.194,861.591,444.651,861.302,444.965z"/>
<path fill="#6FCFF4" d="M861.302,444.965c-0.12-0.537,0.129-0.875,0.61-1.076C862.025,444.428,861.848,444.797,861.302,444.965z"/>
<path fill="#00AAEC" d="M421.175,444.965c-1.269,5.477-7.241,11.071-13.88,11.528c-3.299,0.225-6.591,0.08-9.489-1.733
	c-3.613-2.265-4.761-5.709-4.328-9.811c0.378-3.621,2.489-5.957,5.66-7.41c3.42-1.565,7.104-1.734,10.781-1.766
	c3.621-0.041,7.242,0.048,10.87-0.041c1.26-0.032,1.493,0.441,1.445,1.558c-0.104,2.208-0.057,4.416-0.458,6.599
	C421.488,444.194,421.464,444.651,421.175,444.965z"/>
<path fill="#6FCFF4" d="M421.175,444.965c-0.128-0.537,0.12-0.875,0.603-1.076C421.898,444.428,421.713,444.797,421.175,444.965z"/>
<path fill="#00AAEC" d="M989.236,420.078c1.18-6.719,6.983-12.339,15.061-12.836c5.139-0.314,9.713,0.866,13.197,4.896
	c2.4,2.785,3.564,6.076,3.686,9.754c0.032,0.964-0.289,1.269-1.252,1.261c-10.076-0.023-20.149-0.04-30.227,0.008
	c-1.83,0-0.938-1.195-1.043-1.976C988.947,420.865,988.995,420.416,989.236,420.078z"/>
<path fill="#6BCDF4" d="M989.236,420.078c0.151,0.546-0.08,0.897-0.578,1.106C988.586,420.672,988.602,420.215,989.236,420.078z"/>
<path fill="#01AAEC" d="M331.535,349.793c0.53-2.649,1.791-3.861,4.536-4.367c3.002-0.546,5.098,0.273,6.479,2.529
	c1.589,2.609,0.835,4.841-2.119,5.724c-2.577,0.771-5.074,0.522-7.346-1.146c-0.498-0.362-0.787-0.764-0.955-1.31
	C331.72,350.829,331.904,350.195,331.535,349.793z"/>
<path fill="#00AAEC" d="M333.574,334.829c-0.041-1.341-0.426-2.746,0.152-3.99c0.602-1.284,1.605-2.248,3.267-2.103
	c1.71,0.145,2.642,1.235,3.348,2.608c0.225,0.435,0.233,0.973,0.337,1.461c0.401,0.395,0.208,1.036,0.603,1.43
	c0.008,0.777,0.008,1.564,0.008,2.344c-0.297,0.297-0.305,0.771-0.626,1.052c-1.598,2.328-4.52,1.966-6.109-0.771
	c-0.169-0.289-0.241-0.626-0.361-0.939C333.855,335.632,333.831,335.166,333.574,334.829z"/>
<path fill="#3CBEF0" d="M341.281,334.235c-0.69-0.273-0.69-0.827-0.602-1.43C341.369,333.079,341.361,333.641,341.281,334.235z"/>
<path fill="#8BD8F6" d="M331.535,349.793c0.61,0.305,0.659,0.843,0.594,1.429C331.415,350.958,331.39,350.411,331.535,349.793z"/>
<path fill="#4EC4F2" d="M340.663,337.631c-0.072-0.521,0.12-0.883,0.626-1.052C341.434,337.141,341.152,337.446,340.663,337.631z"/>
<path fill="#A3E0F7" d="M333.574,334.829c0.642,0.12,0.65,0.594,0.618,1.091C333.686,335.728,333.445,335.383,333.574,334.829z"/>
</svg>
