<?xml version="1.0" encoding="utf-8"?>
<!-- Generator: Adobe Illustrator 16.0.0, SVG Export Plug-In . SVG Version: 6.00 Build 0)  -->
<!DOCTYPE svg PUBLIC "-//W3C//DTD SVG 1.0//EN" "http://www.w3.org/TR/2001/REC-SVG-20010904/DTD/svg10.dtd" [
	<!ENTITY ns_flows "http://ns.adobe.com/Flows/1.0/">
	<!ENTITY ns_extend "http://ns.adobe.com/Extensibility/1.0/">
	<!ENTITY ns_ai "http://ns.adobe.com/AdobeIllustrator/10.0/">
	<!ENTITY ns_graphs "http://ns.adobe.com/Graphs/1.0/">
]>
<svg version="1.0" id="Ebene_1" xmlns:x="&ns_extend;" xmlns:i="&ns_ai;" xmlns:graph="&ns_graphs;"
	 xmlns="http://www.w3.org/2000/svg" xmlns:xlink="http://www.w3.org/1999/xlink" xmlns:a="http://ns.adobe.com/AdobeSVGViewerExtensions/3.0/"
	 x="0px" y="0px" width="809px" height="149.816px" viewBox="0 1 809 149.816" enable-background="new 0 1 809 149.816"
	 xml:space="preserve">
<path fill="#00AAEC" d="M816.824,160.906c-276.218,0-552.439,0-828.662,0.017c-1.009,0-1.239-0.125-1.239-0.669
	c0.025-55.787,0.025-111.574,0.025-167.36c276.625,0,553.249,0,829.875,0c0.255,0.252,0.127,0.524,0.127,0.786
	c0.007,55.483,0.007,110.963,0,166.442C816.951,160.383,817.079,160.656,816.824,160.906z"/>
<path fill="#FEFEFE" d="M26.557,72.356c-0.763,0.963-0.522,1.718-0.522,2.417c-0.016,23.827-0.032,47.654,0.033,71.481
	c0.008,1.757-0.474,2.119-2.152,2.103c-7.353-0.104-14.707-0.072-22.069-0.016c-1.196,0.008-1.493-0.312-1.493-1.501
	c0.032-34.239,0.032-68.479,0-102.718c0-1.188,0.305-1.52,1.501-1.511c10.581,0.04,21.162,0.08,31.75-0.022
	c2.071-0.024,1.935,1.638,2.384,2.633c2.087,4.606,3.934,9.32,6.029,13.929c1.605,3.518,2.946,7.153,4.456,10.709
	c1.525,3.604,3.123,7.169,4.656,10.773c1.172,2.735,2.264,5.507,3.428,8.253c1.268,2.979,2.593,5.938,3.877,8.911
	c0.112,0.265,0.168,0.554,0.521,0.554s0.409-0.281,0.522-0.554c1.798-4.345,3.572-8.694,5.427-13.016
	c2.199-5.112,4.496-10.171,6.695-15.285c1.533-3.548,2.93-7.159,4.448-10.717c1.509-3.541,3.099-7.048,4.64-10.581
	c0.458-1.065,0.947-2.127,1.269-3.243c0.465-1.638,1.26-2.393,3.155-2.367c10.3,0.104,20.6,0.07,30.9,0.022
	c1.244-0.008,1.622,0.281,1.622,1.582c-0.04,34.185-0.04,68.366-0.008,102.549c0,1.252-0.297,1.613-1.581,1.6
	c-7.466-0.064-14.94-0.072-22.414,0.008c-1.39,0.008-1.646-0.434-1.638-1.709c0.032-24.173,0.024-48.337,0.024-72.501
	c0-0.675,0-1.341,0-2.328c-0.979,0.931-1.252,1.951-1.629,2.826c-2.32,5.481-4.616,10.98-7.056,16.417
	c-1.606,3.572-2.955,7.265-4.496,10.859c-1.863,4.346-3.846,8.621-5.708,12.967c-1.541,3.597-3.002,7.225-4.448,10.868
	c-0.594,1.503-1.268,2.394-3.211,2.306c-4.52-0.2-9.056-0.104-13.576-0.04c-1.34,0.022-1.95-0.465-2.448-1.71
	c-1.493-3.727-3.179-7.385-4.761-11.078c-1.172-2.746-2.271-5.516-3.444-8.261c-1.542-3.604-3.123-7.187-4.664-10.782
	c-1.148-2.689-2.232-5.41-3.388-8.102c-1.589-3.691-3.235-7.36-4.816-11.055C27.745,75.567,27.216,74.066,26.557,72.356z"/>
<path fill="#FEFEFE" d="M330.859,104.525c-0.436,13.855-0.104,27.721-0.209,41.584c-0.018,2.594,0.217,2.192-2.119,2.2
	c-7.25,0.017-14.491-0.024-21.732,0.032c-1.154,0.008-1.534-0.248-1.534-1.479c0.033-35.709,0.033-71.417-0.008-107.126
	c0-1.355,0.467-1.549,1.654-1.542c7.354,0.048,14.715,0.058,22.069-0.008c1.34-0.008,1.702,0.369,1.702,1.693
	c-0.05,12.621-0.041,25.238-0.01,37.859c0,0.725-0.488,1.814,0.396,2.111c0.586,0.2,0.996-0.883,1.453-1.381
	c5.122-5.588,11.157-9.658,18.761-10.798c7.932-1.188,15.639-0.578,22.495,4.207c3.677,2.561,6.246,6.005,7.963,10.123
	c1.004,2.417,2.032,4.824,2.096,7.499c0.481,0.497,0.121,1.274,0.595,1.766c0.328,2.874,0.394,5.749,0.394,8.639
	c-0.016,15.552-0.024,31.108,0.022,46.659c0.01,1.39-0.297,1.797-1.731,1.781c-7.41-0.08-14.82-0.072-22.23-0.008
	c-1.3,0.016-1.571-0.361-1.563-1.6c0.022-13.52,0.008-27.038-0.04-40.549c-0.017-3.051-0.208-6.102-0.321-9.145
	c-0.474-0.507-0.12-1.276-0.594-1.782c0.072-4.407-4.608-8.397-9.192-8.79c-7.03-0.594-12.61,2.504-15.663,8.959
	c-1.1,2.336-2.021,4.68-2.077,7.289C331.003,103.247,331.34,104.019,330.859,104.525z"/>
<path fill="#FEFEFE" d="M558.629,87.931c0.152,1.324,0.307,2.656,0.458,3.99c0.297,0.377,0.281,0.826,0.289,1.273
	c0.104,0.939-0.258,1.938,0.289,2.834c0.016,13.979,0.031,27.953,0.048,41.933c0,2.938-0.073,5.884,0.032,8.821
	c0.056,1.332-0.401,1.564-1.613,1.559c-7.475-0.059-14.938-0.059-22.414,0c-1.181,0.008-1.51-0.289-1.502-1.493
	c0.049-8.831,0.031-17.653,0.023-26.484c-0.008-5.489,0.186-10.987-0.137-16.457c-0.191-3.18-0.312-6.405-0.906-9.554
	c-0.754-4.006-4.994-7.521-9.337-7.875c-7.658-0.635-13.312,3.115-16.146,10.1c-0.418,1.035-0.906,2.022-1.012,3.146
	c-0.298,0.32-0.346,0.762-0.586,1.107c-1.028,10.557-0.41,21.146-0.555,31.719c-0.063,4.641-0.049,9.288,0.008,13.928
	c0.016,1.373-0.377,1.879-1.838,1.863c-7.354-0.064-14.707-0.059-22.068,0c-1.196,0.008-1.502-0.322-1.502-1.51
	c0.031-35.717,0.031-71.426,0-107.143c0-1.213,0.354-1.501,1.525-1.494c7.297,0.048,14.604,0.072,21.898-0.008
	c1.646-0.022,1.99,0.594,1.982,2.087c-0.04,12.564-0.023,25.128-0.018,37.692c0,0.602-0.159,1.229,0.467,2.304
	c1.733-1.887,3.234-3.805,5.01-5.411c11.104-10.035,27.457-9.096,35.918-4.014c4.054,2.432,7.008,5.796,9.016,10.059
	c0.892,1.903,1.789,3.798,2.087,5.917C558.341,87.136,558.39,87.585,558.629,87.931z"/>
<path fill="#FEFEFE" d="M570.88,116.702c1.519-6.901,5.74-11.592,12.02-14.555c7.312-3.441,15.154-4.246,23.096-4.487
	c1.188-0.04,2.377,0,3.564,0c4.464-0.271,8.92-0.048,13.383-0.118c1.719-0.024,1.791-0.131,1.355-1.889
	c0.227-6.223-3.91-9.271-9.016-10.482c-6.357-1.512-12.781-1.285-19.203-0.529c-6.414,0.754-12.547,2.488-18.279,5.53
	c-0.191,0.097-0.439,0.081-0.826,0.137c0-3.548,0-7.032,0.01-10.524c0-2.487,0.008-4.978-0.019-7.466
	c0-0.675,0.072-1.155,0.899-1.341c15.542-3.484,31.188-5.291,47.036-2.393c5.827,1.06,11.295,3.123,15.782,7.265
	c3.402,3.155,5.668,6.944,7.041,11.36c0.407,1.332,0.875,2.633,1.012,4.021c0.385,0.402,0.208,1.035,0.586,1.438
	c0.924,12.939,0.249,25.891,0.434,38.832c0.072,5.145-0.008,10.299,0.024,15.443c0.008,0.939-0.112,1.404-1.253,1.396
	c-7.635-0.059-15.271-0.04-22.904-0.018c-1.012,0.01-1.381-0.279-1.354-1.35c0.071-3.098,0.03-6.197,0.03-9.457
	c-1.43,0.748-2.08,2.023-2.93,3.021c-5.275,6.115-12.051,9.104-19.942,9.703c-6.839,0.521-13.519-0.104-19.569-3.797
	c-4.505-2.762-7.934-6.423-9.964-11.375c-0.498-1.205-0.933-2.377-1.044-3.662c-0.227-0.353-0.28-0.794-0.562-1.123
	c-0.539-4.148-0.396-8.309,0.031-12.459C570.534,117.466,570.591,117.032,570.88,116.702z"/>
<path fill="#FEFEFE" d="M209.187,92.667c0.932,12.939,0.257,25.891,0.434,38.832c0.072,5.145,0,10.299,0.032,15.443
	c0.008,0.939-0.112,1.404-1.26,1.396c-7.636-0.059-15.271-0.04-22.904-0.018c-1.004,0.01-1.373-0.279-1.349-1.35
	c0.07-3.098,0.022-6.197,0.022-9.457c-1.421,0.748-2.079,2.023-2.93,3.02c-5.274,6.117-12.05,9.104-19.942,9.705
	c-6.839,0.521-13.511-0.104-19.564-3.797c-4.512-2.762-7.939-6.423-9.971-11.375c-0.498-1.205-0.923-2.377-1.043-3.662
	c-0.217-0.353-0.281-0.794-0.562-1.123c-0.538-4.148-0.394-8.309,0.032-12.459c0.225-0.359,0.281-0.795,0.57-1.125
	c1.509-6.901,5.74-11.592,12.018-14.555c7.313-3.443,15.157-4.246,23.096-4.487c1.188-0.04,2.376,0,3.565,0
	c4.454-0.271,8.918-0.048,13.375-0.118c1.718-0.024,1.798-0.131,1.354-1.889c0.225-6.223-3.91-9.271-9.016-10.482
	c-6.358-1.512-12.78-1.285-19.203-0.529c-6.415,0.754-12.548,2.488-18.28,5.53c-0.185,0.097-0.434,0.081-0.819,0.137
	c0-3.548,0-7.032,0-10.524c0-2.487,0.008-4.978-0.008-7.466c-0.008-0.675,0.072-1.156,0.899-1.341
	c15.542-3.484,31.188-5.291,47.028-2.393c5.827,1.06,11.303,3.123,15.781,7.265c3.404,3.155,5.668,6.944,7.041,11.36
	c0.417,1.332,0.883,2.633,1.012,4.021C208.994,91.632,208.817,92.265,209.187,92.667z"/>
<path fill="#FEFEFE" d="M809.271,104.525c0.023,3.275-0.018,6.551,0.082,9.826c0.029,1.164-0.379,1.389-1.438,1.381
	c-5.596-0.049-11.188-0.021-16.786-0.021c-12.949,0-25.891,0-38.832,0c-2.229,0-2.224,0-1.895,2.207
	c0.081,0.497,0.137,1.004,0.201,1.51c0.297,0.312,0.336,0.762,0.586,1.099c1.582,6.423,5.924,10.103,12.051,11.833
	c6.285,1.791,12.65,1.262,18.986,0.153c7.754-1.351,15.004-4.206,21.945-7.836c1.253-0.649,1.381-0.329,1.373,0.844
	c-0.031,5.604-0.041,11.198,0.018,16.802c0.008,1.021-0.346,1.486-1.275,1.814c-12.404,4.397-25.145,6.76-38.342,6.182
	c-8.534-0.377-16.73-2.109-24.164-6.631c-6.014-3.653-10.582-8.646-13.576-14.964c-1.935-4.078-3.243-8.421-3.492-12.997
	c-0.617-0.852,0.024-1.968-0.562-2.826c-0.009-2.666-0.023-5.339-0.031-8.004c0.65-0.836-0.024-1.943,0.578-2.785
	c0.16-1.559,0.321-3.105,0.479-4.654c0.229-0.361,0.274-0.806,0.57-1.125c1.904-8.801,6.641-15.783,13.833-21.081
	c6.062-4.464,13.013-6.712,20.433-7.57c8.669-1.012,17.234-0.714,25.479,2.521c7.778,3.061,13.833,8.156,18.095,15.392
	c1.863,3.163,3.396,6.431,4.078,10.06c0.289,0.32,0.33,0.763,0.578,1.107c0.152,1.652,0.298,3.308,0.449,4.97
	C809.319,102.566,808.653,103.681,809.271,104.525z"/>
<path fill="#FEFEFE" d="M467.953,118.148c0.401,4.158,0.569,8.316,0.024,12.484c-0.282,0.318-0.348,0.762-0.562,1.115
	c-0.971,5.617-4.295,9.575-8.919,12.596c-5.62,3.66-11.987,5.01-18.521,5.628c-13.905,1.314-27.506-0.538-40.929-4.104
	c-0.562-0.145-1.355-0.07-1.349-1.141c0.048-6.101,0.022-12.201,0.022-18.504c1.8,0.754,3.43,1.453,5.082,2.119
	c9.288,3.757,18.946,5.46,28.949,5.05c3.612-0.144,7.209-0.562,10.139-3.019c3.679-3.066,2.777-8.943-1.651-10.671
	c-3.829-1.501-7.916-1.772-11.938-2.296c-6.663-0.865-13.286-1.895-19.509-4.654c-5.555-2.48-9.479-6.264-11.189-12.322
	c-1.47-5.203-1.519-10.485-0.395-15.543c1.727-7.755,7.137-12.518,14.604-14.996c8.193-2.714,16.647-2.986,25.149-2.553
	c8.253,0.426,16.369,1.861,24.413,3.757c1.365,0.321,1.646,0.875,1.63,2.149c-0.063,5.202-0.022,10.412-0.022,15.614
	c0,2.039-0.008,2.058-1.83,1.325c-7.562-3.051-15.357-5.211-23.517-5.893c-4.229-0.354-8.491-0.457-12.644,0.634
	c-2.812,0.739-5.459,1.847-5.949,5.29c-0.398,0.803-0.425,1.613,0.018,2.417c0.33,2.224,1.928,3.292,3.798,4.038
	c3.331,1.332,6.896,1.563,10.404,2.055c6.813,0.947,13.64,1.863,20.164,4.151c4.36,1.522,8.446,3.499,11.129,7.521
	c1.354,2.039,2.513,4.166,2.824,6.64C467.664,117.361,467.712,117.811,467.953,118.148z"/>
<path fill="#FEFEFE" d="M222.44,86.1c0.803-6.519,4.479-11.022,10.025-14.145c5.323-2.986,11.191-3.99,17.174-4.479
	c12.588-1.036,24.901,0.771,37.097,3.661c0.634,0.152,1.365,0.121,1.355,1.14c-0.022,6.103-0.008,12.194-0.008,18.417
	c-3.292-1.141-6.374-2.345-9.537-3.292c-8.443-2.536-17.025-4.054-25.89-2.938c-2.457,0.305-4.849,0.867-6.76,2.666
	c-2.689,2.52-2.48,7.23,1.228,9.088c2.778,1.389,5.812,1.75,8.831,2.166c8.196,1.141,16.45,2.049,24.261,5.064
	c4.126,1.605,7.771,3.808,10.132,7.739c1.533,2.562,2.546,5.269,2.825,8.245c0.586,0.714-0.016,1.726,0.596,2.44
	c-0.01,1.998-0.018,3.987-0.018,5.987c-0.521,0.617-0.048,1.51-0.586,2.127c-0.136,0.893-0.271,1.789-0.417,2.684
	c-0.297,0.305-0.321,0.762-0.61,1.076c-1.411,4.961-4.72,8.372-9,10.988c-5.569,3.419-11.793,4.672-18.175,5.26
	c-13.849,1.273-27.392-0.611-40.767-4.119c-1.036-0.273-1.421-0.658-1.405-1.79c0.065-5.491,0.073-10.982,0-16.476
	c-0.016-1.381,0.33-1.482,1.485-0.938c10.164,4.834,20.881,7.062,32.128,6.752c3.18-0.088,6.311-0.449,9.191-1.951
	c2.954-1.549,4.264-4.006,3.767-7.289c-0.41-2.665-2.272-4.021-4.729-4.801c-4.456-1.422-9.104-1.638-13.672-2.312
	c-6.808-1.012-13.559-2.229-19.636-5.729c-3.717-2.136-6.406-5.114-7.899-9.216c-0.48-1.332-0.923-2.609-0.986-4.016
	c-0.476-0.506-0.12-1.275-0.578-1.781c-0.187-2.817-0.187-5.637-0.008-8.453C222.32,87.376,221.967,86.597,222.44,86.1z"/>
<path fill="#FEFEFE" d="M691.524,107.23c-0.436,12.846-0.112,25.689-0.209,38.535c-0.018,2.544,0,2.544-2.633,2.544
	c-7.072,0-14.146-0.024-21.221,0.024c-1.146,0.016-1.541-0.232-1.541-1.471c0.041-25.465,0.041-50.93,0.01-76.395
	c-0.01-1.244,0.435-1.485,1.559-1.479c7.416,0.04,14.826,0.05,22.236-0.008c1.284-0.016,1.652,0.361,1.611,1.621
	c-0.079,3.115-0.029,6.23-0.016,9.337c0.008,0.41-0.201,1.021,0.41,1.143c0.514,0.096,0.506-0.516,0.706-0.819
	c6.743-9.931,16.278-13.864,28.018-12.965c4.368,0.329,4.358,0.399,4.358,4.761c0,5.66-0.039,11.319,0.031,16.979
	c0.018,1.469-0.318,1.699-1.66,1.132c-6.229-2.649-12.652-3.339-19.163-1.229c-4.535,1.47-7.738,4.562-9.817,8.871
	c-1.124,2.328-2.021,4.688-2.119,7.306c-0.28,0.387-0.271,0.837-0.271,1.285C691.813,106.716,691.741,106.997,691.524,107.23z"/>
<path fill="#FEFEFE" d="M19.678,13.125c0.048-0.915,0.61-1.27,1.445-1.31c0.401-0.022,0.794-0.022,1.188-0.022
	c2.762-0.019,2.818-0.104,2.537-2.804c-0.064-0.648-0.281-0.897-0.915-0.875c-1.919,0.05-3.838-0.062-5.756,0.219
	c-2.4,0.359-4.359,2.312-4.247,4.961c0.049,1.212-0.225,1.758-1.565,1.638c-2.167-0.201-1.196,1.509-1.381,2.48
	c-0.225,1.146,0.265,1.71,1.47,1.51c1.236-0.209,1.493,0.377,1.477,1.517c-0.072,3.508-0.064,7.016,0,10.525
	c0.016,1.105-0.185,1.604-1.46,1.563c-2.995-0.089-5.998,0-8.992-0.031c-2.513-0.031-3.091-0.635-3.091-3.074
	c-0.008-8.542-0.008-17.094,0-25.636c0-2.487,0.65-3.179,3.179-3.187c5.435-0.024,10.862-0.008,16.297-0.008
	c2.994,0,5.997-0.018,8.991,0c2.36,0.017,3.107,0.771,3.107,3.091c0,8.663,0,17.316,0,25.971c0,2.031-0.618,2.777-2.593,2.826
	c-2.882,0.072-5.772-0.008-8.662,0.04c-0.835,0.008-1.043-0.312-1.043-1.092c0.032-3.789,0.04-7.586,0-11.375
	c-0.008-0.883,0.257-1.229,1.156-1.148c0.619,0.064,1.252-0.062,1.863,0.032c1.333,0.201,1.614-0.385,1.557-1.604
	c-0.121-2.866,0.281-2.368-2.457-2.426c-0.683-0.017-1.356-0.048-2.031-0.062C19.308,14.29,19.34,13.712,19.678,13.125z"/>
<path fill="#FEFEFE" d="M71.073,17.276c0.016,1.341-0.747,2.449-1.1,3.679c0.048,0.4-0.041,0.745-0.377,1.004
	c-0.932,1.044-1.822,2.127-2.794,3.131c-4.535,4.694-13.222,5.708-18.593,2.007c2.569-0.361,5.025-0.57,7.064-2.304
	c-1.22-0.516-2.504-0.875-3.46-1.783c-1.517-1.445-1.429-1.919,0.401-2.465c-0.65-0.409-1.292-0.819-1.935-1.229
	c-0.257-0.056-0.49-0.145-0.602-0.417c-0.121-0.618-0.586-1.076-0.795-1.614c-0.241-0.634-0.995-1.558,0.354-1.98
	c0.225-0.081,0.369-0.227,0.409-0.466c-0.12-0.337-0.241-0.676-0.361-1.013c-0.353-0.265-0.353-0.747-0.642-1.052
	c-0.024-0.337-0.056-0.674-0.064-1.011c-0.008-0.996-0.257-2.24,0.762-2.73c0.875-0.425,1.26,0.827,1.838,1.303
	c2.545,2.079,5.299,3.557,8.63,3.779c0.73-0.577-0.088-1.669,0.739-2.216c1.501-4.247,5.298-5.65,9.039-3.211
	c1.277,0.835,2.104-0.104,3.139-0.281c0.361-0.104,0.45,0.064,0.394,0.387c-0.097,0.771-0.683,1.205-1.237,1.7
	c0.715,0.716,1.357-0.48,2.047,0.112c-0.297,0.979-1.389,1.357-1.911,2.192v-0.009c-0.481,0.36-0.145,0.938-0.345,1.372
	c-0.498,0.569-0.257,1.27-0.321,1.91C71.362,16.497,71.354,16.915,71.073,17.276z"/>
<path fill="#FBFDFE" d="M99.155,17.887c0.185-0.723-0.273-0.65-0.771-0.699c-3.653-0.329-5.331-1.734-6.254-5.178
	c-0.514-0.49-0.514-0.979,0.008-1.469c1.092-4.279,4.223-5.878,7.683-6.271c2.537-0.297,5.074-0.185,7.603-0.231
	c0.626-0.018,0.851,0.096,0.337,0.642c-0.249,0.386-0.594,0.643-1.068,0.707c-0.674,0.514-1.533,0.104-2.376,0.48
	c1.036,1.094,1.774,2.346,2.062,3.733c0.506,2.424-0.474,4.335-2.376,5.86c-2.28,1.847-1.975,2.955,0.208,4.504
	c1.381,0.979,2.762,2.03,3.227,3.805c0.73,2.762-0.152,5.29-2.553,6.872c-3.564,2.368-7.434,2.488-11.295,1.003
	c-1.871-0.722-3.251-2.256-3.195-4.471c0.072-2.361,1.573-3.798,3.548-4.833c1.774-0.939,3.79-0.955,5.748-1.438
	c-0.186-0.586-0.361-1.106-0.53-1.63C98.842,18.817,98.842,18.352,99.155,17.887z"/>
<path fill="#F7FCFE" d="M112.746,12.37c0.626-0.056,1.043,0.099,1.027,0.805c-0.016,0.514,0.056,1.025-0.008,1.523
	c-0.177,1.188,0.418,1.351,1.445,1.445c0.803,0.072,2.368-0.867,2.296,0.939c-0.072,1.558-1.501,0.763-2.264,0.771
	c-1.188,0-1.654,0.345-1.477,1.533c0.056,0.385-0.008,0.787,0.008,1.188c0.023,0.626-0.056,1.094-0.891,1.076
	c-0.771-0.022-1.196-0.265-1.076-1.092c0.297-1.95-0.176-3.155-2.504-2.665c-0.626,0.128-0.891-0.225-0.883-0.883
	c0.008-0.634,0.257-1.036,0.883-0.907c2.376,0.49,2.777-0.787,2.504-2.714C111.71,12.659,112.096,12.355,112.746,12.37z"/>
<path fill="#C4EBFA" d="M624.298,95.654c0.69,0.273,0.684,0.854,0.529,1.412c-0.16,0.604-0.705,0.691-1.229,0.691
	c-4.682-0.024-9.359-0.064-14.041-0.099c2.744-0.439,5.508-0.104,8.254-0.19c1.523-0.049,3.059-0.113,4.566,0.016
	C623.841,97.613,624.499,97.147,624.298,95.654z"/>
<path fill="#C4EBFA" d="M184.163,95.654c0.699,0.273,0.684,0.854,0.53,1.412c-0.161,0.604-0.699,0.691-1.22,0.691
	c-4.682-0.024-9.361-0.064-14.041-0.099c2.735-0.439,5.497-0.104,8.252-0.19c1.517-0.049,3.051-0.113,4.566,0.016
	C183.705,97.613,184.372,97.147,184.163,95.654z"/>
<path fill="#00A8E9" d="M106.974,9.176c0.506,0.963,0.417,1.91,0.088,2.842C106.5,11.062,106.709,10.123,106.974,9.176z"/>
<path fill="#C2EAFA" d="M559.665,96.031c-1.076-0.746-0.547-1.83-0.587-2.785c0.233-0.145,0.435-0.15,0.571,0.131
	C559.657,94.257,559.657,95.14,559.665,96.031z"/>
<path fill="#B9E7F9" d="M809.271,104.525c-1.067-0.755-0.569-1.83-0.578-2.802C809.729,102.478,809.206,103.561,809.271,104.525z"/>
<path fill="#40BFF1" d="M724.696,102.109c-0.072,0.946,0.4,2.022-0.578,2.785C724.118,103.923,723.628,102.855,724.696,102.109z"/>
<path fill="#00A8E9" d="M92.138,10.541c0,0.488,0,0.979-0.008,1.469c-0.089,0.136-0.201,0.393-0.281,0.377
	c-0.675-0.088-0.442-0.658-0.426-1.028C91.44,10.975,91.159,10.156,92.138,10.541z"/>
<path fill="#40BFF1" d="M724.149,112.898c0.979,0.787,0.475,1.863,0.562,2.826C723.636,114.961,724.103,113.885,724.149,112.898z"/>
<path fill="#00A8E9" d="M60.548,11.897c-0.281,0.723,0.891,1.937-0.739,2.216C60.075,13.382,59.167,12.259,60.548,11.897z"/>
<path fill="#3BBEF0" d="M293.77,121.873c-0.934-0.638-0.546-1.593-0.596-2.44C294.194,120.042,293.793,121.006,293.77,121.873z"/>
<path fill="#BDE8FA" d="M419.062,92.635c-0.946-0.803-0.933-1.605-0.018-2.417C419.054,91.021,419.054,91.832,419.062,92.635z"/>
<path fill="#00A8E9" d="M72.02,12.797c0.923,0.466,0.747,1.164,0.385,2.159c-0.554-0.812-0.289-1.525-0.385-2.167V12.797z"/>
<path fill="#40BFF1" d="M293.167,129.99c0.073-0.747-0.361-1.622,0.586-2.127C293.826,128.64,294.099,129.484,293.167,129.99z"/>
<path fill="#59C7F3" d="M330.859,104.525c0.016-0.658-0.361-1.438,0.568-1.799C331.518,103.417,331.661,104.115,330.859,104.525z"/>
<path fill="#44C0F1" d="M19.678,13.125c0.024,0.568,0.048,1.141,0.072,1.718C18.77,14.306,18.834,13.736,19.678,13.125z"/>
<path fill="#B5E6F9" d="M221.863,96.327c0.827,0.388,0.658,1.102,0.578,1.783C221.614,97.725,221.823,96.994,221.863,96.327z"/>
<path fill="#DAF2FB" d="M71.065,15.919c-0.016-0.658-0.217-1.381,0.61-1.76c-0.008,0.562-0.016,1.125-0.024,1.68
	C71.482,16.064,71.282,16.072,71.065,15.919z"/>
<path fill="#40BFF1" d="M358.362,95.268c0.884,0.369,0.578,1.124,0.594,1.782C358.146,96.656,358.282,95.958,358.362,95.268z"/>
<path fill="#BFE9FA" d="M384.431,91.27c-0.804-0.385-0.684-1.075-0.595-1.766C384.63,89.89,384.462,90.604,384.431,91.27z"/>
<path fill="#00A8E9" d="M118.518,16.979c-0.008,0.227,0,0.506-0.265,0.538c-0.297,0.032-0.329-0.257-0.312-0.474
	c0.008-0.152,0.081-0.395,0.185-0.436C118.43,16.489,118.47,16.762,118.518,16.979z"/>
<path fill="#BFE9FA" d="M222.44,86.1c0.088,0.69,0.217,1.39-0.586,1.774C221.87,87.224,221.558,86.461,222.44,86.1z"/>
<path fill="#3ABDF0" d="M99.155,17.887c0,0.466,0.008,0.923,0.008,1.389C98.344,18.817,98.271,18.36,99.155,17.887z"/>
<path fill="#91DAF6" d="M71.065,15.919c0.201-0.024,0.393-0.05,0.586-0.08c0.064,0.586,0.193,1.188-0.578,1.437
	C71.073,16.826,71.073,16.377,71.065,15.919z"/>
<path fill="#3BBEF0" d="M559.649,93.374c-0.188-0.041-0.378-0.092-0.571-0.131c0-0.439,0-0.883,0.009-1.322
	C559.777,92.209,559.745,92.779,559.649,93.374z"/>
<path fill="#60CAF3" d="M649.321,92.667c-0.685-0.281-0.666-0.845-0.586-1.438C649.418,91.511,649.457,92.057,649.321,92.667z"/>
<path fill="#60CAF3" d="M209.187,92.667c-0.684-0.281-0.658-0.845-0.586-1.438C209.283,91.511,209.323,92.057,209.187,92.667z"/>
<path fill="#00A8E9" d="M69.596,21.956c0.032-0.369,0.064-0.738,0.377-1.005C70.984,21.716,69.9,21.692,69.596,21.956z"/>
<path fill="#00A8E9" d="M106.693,5.387c0.361-0.241,0.715-0.474,1.068-0.707C107.721,5.387,107.399,5.676,106.693,5.387z"/>
<path fill="#A0DFF7" d="M130.151,130.286c0.53,0.209,0.707,0.588,0.562,1.123C130.022,131.289,130.102,130.784,130.151,130.286z"/>
<path fill="#6BCDF4" d="M751.188,120.524c-0.636-0.136-0.645-0.593-0.586-1.099C751.101,119.633,751.349,119.97,751.188,120.524z"/>
<path fill="#65CCF3" d="M467.953,118.148c-0.683-0.111-0.618-0.607-0.57-1.105C467.905,117.241,468.097,117.611,467.953,118.148z"/>
<path fill="#8FD9F6" d="M292.14,133.747c-0.128-0.549,0.146-0.868,0.61-1.076C292.854,133.2,292.694,133.585,292.14,133.747z"/>
<path fill="#60CAF3" d="M570.88,116.702c0.049,0.498,0.128,1.006-0.562,1.125C570.173,117.281,570.357,116.911,570.88,116.702z"/>
<path fill="#60CAF3" d="M130.753,116.702c0.04,0.498,0.128,1.006-0.57,1.125C130.038,117.281,130.231,116.911,130.753,116.702z"/>
<path fill="#A0DFF7" d="M570.286,130.286c0.529,0.209,0.698,0.588,0.562,1.123C570.149,131.289,570.229,130.784,570.286,130.286z"/>
<path fill="#A0DFF7" d="M467.415,131.747c-0.145-0.538,0.032-0.916,0.562-1.115C468.025,131.12,468.112,131.626,467.415,131.747z"/>
<path fill="#35BCF0" d="M691.524,107.23c0-0.338,0-0.674,0-1.012c0.177-0.217,0.369-0.227,0.578-0.064
	C692.183,106.659,692.03,107.038,691.524,107.23z"/>
<path fill="#75D1F4" d="M692.103,106.154c-0.192,0.024-0.387,0.049-0.578,0.064c-0.023-0.475-0.16-1.003,0.562-1.102
	C692.095,105.464,692.103,105.809,692.103,106.154z"/>
<path fill="#9ADDF7" d="M506.118,100.831c-0.145-0.547,0.072-0.907,0.586-1.107C506.736,100.213,506.808,100.727,506.118,100.831z"
	/>
<path fill="#60CAF3" d="M725.747,96.327c0.041,0.49,0.121,1.006-0.57,1.125C725.034,96.906,725.226,96.536,725.747,96.327z"/>
<path fill="#6BCDF4" d="M808.243,96.753c-0.635-0.139-0.65-0.604-0.578-1.107C808.163,95.855,808.396,96.199,808.243,96.753z"/>
<path fill="#60CAF3" d="M558.629,87.931c-0.675-0.113-0.634-0.611-0.578-1.108C558.573,87.015,558.757,87.392,558.629,87.931z"/>
<path fill="#00A8E9" d="M49.646,14.836c0.321,0.062,0.787,0.185,0.619,0.528c-0.265,0.546-0.691,0.201-1.028-0.062
	C49.373,15.149,49.509,14.995,49.646,14.836z"/>
<path fill="#6ACDF4" d="M48.642,12.772c0.498,0.177,0.73,0.522,0.642,1.052C48.819,13.623,48.506,13.334,48.642,12.772z"/>
<path fill="#00A8E9" d="M49.678,18.898c0.289,0.008,0.554,0.058,0.602,0.417C49.822,19.548,49.517,19.556,49.678,18.898z"/>
<path fill="#93DAF6" d="M73.12,8.79c-0.129-0.13-0.265-0.259-0.394-0.387c0.289-0.271,0.634-0.642,0.915-0.088
	C73.802,8.646,73.409,8.75,73.12,8.79z"/>
<path fill="#00AAEC" d="M623.254,121.857c-1.269,5.478-7.241,11.071-13.872,11.528c-3.308,0.225-6.599,0.08-9.497-1.733
	c-3.604-2.265-4.761-5.709-4.327-9.811c0.387-3.621,2.496-5.957,5.668-7.41c3.422-1.565,7.099-1.734,10.773-1.766
	c3.629-0.041,7.25,0.048,10.869-0.041c1.27-0.032,1.494,0.44,1.445,1.558c-0.104,2.208-0.059,4.416-0.449,6.599
	C623.567,121.086,623.543,121.543,623.254,121.857z"/>
<path fill="#6FCFF4" d="M623.254,121.857c-0.12-0.537,0.129-0.875,0.61-1.076C623.978,121.32,623.8,121.689,623.254,121.857z"/>
<path fill="#00AAEC" d="M183.127,121.857c-1.269,5.478-7.241,11.071-13.88,11.528c-3.299,0.225-6.591,0.08-9.489-1.733
	c-3.613-2.265-4.761-5.709-4.328-9.811c0.378-3.621,2.489-5.957,5.66-7.41c3.42-1.565,7.104-1.734,10.781-1.766
	c3.621-0.041,7.242,0.048,10.87-0.041c1.26-0.032,1.493,0.44,1.445,1.558c-0.104,2.208-0.058,4.416-0.458,6.599
	C183.44,121.086,183.416,121.543,183.127,121.857z"/>
<path fill="#6FCFF4" d="M183.127,121.857c-0.128-0.537,0.12-0.875,0.604-1.076C183.851,121.32,183.665,121.689,183.127,121.857z"/>
<path fill="#00AAEC" d="M751.188,96.97c1.18-6.719,6.982-12.339,15.061-12.836c5.139-0.314,9.713,0.866,13.197,4.896
	c2.4,2.785,3.563,6.076,3.686,9.754c0.032,0.965-0.289,1.27-1.252,1.262c-10.076-0.023-20.148-0.04-30.227,0.008
	c-1.83,0-0.938-1.195-1.043-1.977C750.899,97.757,750.947,97.308,751.188,96.97z"/>
<path fill="#6BCDF4" d="M751.188,96.97c0.15,0.546-0.08,0.896-0.578,1.105C750.538,97.564,750.554,97.107,751.188,96.97z"/>
<path fill="#01AAEC" d="M93.487,26.685c0.53-2.649,1.791-3.861,4.536-4.367c3.002-0.546,5.098,0.273,6.479,2.529
	c1.589,2.609,0.835,4.841-2.119,5.724c-2.577,0.771-5.074,0.522-7.346-1.146c-0.498-0.362-0.787-0.765-0.955-1.311
	C93.672,27.721,93.856,27.087,93.487,26.685z"/>
<path fill="#00AAEC" d="M95.526,11.721c-0.041-1.341-0.426-2.746,0.152-3.99c0.602-1.284,1.605-2.248,3.267-2.103
	c1.71,0.145,2.642,1.234,3.348,2.607c0.225,0.436,0.233,0.974,0.337,1.461c0.401,0.396,0.208,1.036,0.604,1.431
	c0.008,0.776,0.008,1.563,0.008,2.344c-0.297,0.297-0.305,0.771-0.626,1.052c-1.598,2.328-4.52,1.966-6.109-0.771
	c-0.169-0.289-0.241-0.626-0.361-0.939C95.807,12.524,95.783,12.058,95.526,11.721z"/>
<path fill="#3CBEF0" d="M103.233,11.127c-0.69-0.273-0.69-0.827-0.602-1.431C103.321,9.971,103.313,10.532,103.233,11.127z"/>
<path fill="#8BD8F6" d="M93.487,26.685c0.61,0.305,0.659,0.843,0.594,1.429C93.367,27.85,93.342,27.303,93.487,26.685z"/>
<path fill="#4EC4F2" d="M102.615,14.523c-0.072-0.521,0.12-0.883,0.626-1.052C103.386,14.032,103.104,14.338,102.615,14.523z"/>
<path fill="#A3E0F7" d="M95.526,11.721c0.642,0.12,0.65,0.594,0.618,1.091C95.638,12.619,95.397,12.275,95.526,11.721z"/>
</svg>
